<?xml version="1.0" encoding="UTF-8" standalone="no"?>
<!DOCTYPE svg PUBLIC "-//W3C//DTD SVG 1.1//EN" "http://www.w3.org/Graphics/SVG/1.1/DTD/svg11.dtd">
<svg width="100%" height="100%" viewBox="0 0 900 900" version="1.1" xmlns="http://www.w3.org/2000/svg" xmlns:xlink="http://www.w3.org/1999/xlink" xml:space="preserve" xmlns:serif="http://www.serif.com/" style="fill-rule:evenodd;clip-rule:evenodd;stroke-linejoin:round;stroke-miterlimit:2;">
    <g transform="matrix(2.35454,0,0,3.95855,-597.802,-450.708)">
        <rect x="253.894" y="113.857" width="382.241" height="227.356"/>
    </g>
    <g transform="matrix(6.89619,0,0,6.89619,-5513.94,-4639.69)">
        <g transform="matrix(50,0,0,50,805.516,745.855)">
            <path d="M0.439,-0.094C0.439,-0.079 0.44,-0.063 0.442,-0.047C0.443,-0.031 0.445,-0.015 0.446,-0L0.315,-0L0.309,-0.067L0.307,-0.067C0.292,-0.041 0.274,-0.022 0.253,-0.009C0.232,0.004 0.206,0.01 0.175,0.01C0.15,0.01 0.13,0.006 0.113,-0.003C0.096,-0.012 0.082,-0.023 0.071,-0.038C0.06,-0.052 0.053,-0.069 0.048,-0.089C0.043,-0.108 0.041,-0.129 0.041,-0.151C0.041,-0.193 0.048,-0.226 0.063,-0.249C0.078,-0.272 0.097,-0.29 0.122,-0.301C0.146,-0.312 0.174,-0.318 0.205,-0.321C0.236,-0.323 0.268,-0.324 0.301,-0.323L0.301,-0.362C0.301,-0.373 0.301,-0.383 0.3,-0.392C0.299,-0.401 0.296,-0.408 0.292,-0.415C0.288,-0.422 0.282,-0.427 0.275,-0.431C0.267,-0.434 0.257,-0.436 0.244,-0.436C0.232,-0.436 0.222,-0.434 0.215,-0.43C0.208,-0.425 0.202,-0.42 0.199,-0.413C0.196,-0.406 0.194,-0.397 0.193,-0.388C0.192,-0.379 0.191,-0.369 0.191,-0.359L0.053,-0.359C0.053,-0.39 0.057,-0.415 0.067,-0.435C0.076,-0.455 0.088,-0.471 0.105,-0.482C0.121,-0.494 0.14,-0.503 0.163,-0.508C0.185,-0.513 0.21,-0.515 0.237,-0.515C0.282,-0.515 0.317,-0.511 0.344,-0.502C0.371,-0.493 0.391,-0.48 0.405,-0.465C0.419,-0.45 0.428,-0.432 0.433,-0.411C0.437,-0.39 0.439,-0.369 0.439,-0.346L0.439,-0.094ZM0.301,-0.244C0.284,-0.243 0.268,-0.243 0.253,-0.242C0.238,-0.241 0.225,-0.239 0.214,-0.234C0.203,-0.229 0.194,-0.22 0.188,-0.209C0.182,-0.197 0.179,-0.18 0.179,-0.157C0.179,-0.148 0.18,-0.138 0.181,-0.129C0.182,-0.12 0.184,-0.111 0.188,-0.104C0.191,-0.096 0.197,-0.09 0.204,-0.085C0.211,-0.08 0.22,-0.077 0.231,-0.077C0.252,-0.077 0.267,-0.083 0.277,-0.096C0.287,-0.108 0.294,-0.123 0.297,-0.14C0.3,-0.157 0.302,-0.175 0.302,-0.195C0.301,-0.214 0.301,-0.23 0.301,-0.244Z" style="fill:white;fill-rule:nonzero;"/>
        </g>
        <g transform="matrix(50,0,0,50,830.516,745.855)">
            <rect x="0.068" y="-0.722" width="0.141" height="0.722" style="fill:white;fill-rule:nonzero;"/>
        </g>
        <g transform="matrix(50,0,0,50,844.416,745.855)">
            <rect x="0.068" y="-0.722" width="0.141" height="0.722" style="fill:white;fill-rule:nonzero;"/>
        </g>
        <g transform="matrix(50,0,0,50,858.316,745.855)">
            <path d="M0.439,-0.094C0.439,-0.079 0.44,-0.063 0.442,-0.047C0.443,-0.031 0.445,-0.015 0.446,-0L0.315,-0L0.309,-0.067L0.307,-0.067C0.292,-0.041 0.274,-0.022 0.253,-0.009C0.232,0.004 0.206,0.01 0.175,0.01C0.15,0.01 0.13,0.006 0.113,-0.003C0.096,-0.012 0.082,-0.023 0.071,-0.038C0.06,-0.052 0.053,-0.069 0.048,-0.089C0.043,-0.108 0.041,-0.129 0.041,-0.151C0.041,-0.193 0.048,-0.226 0.063,-0.249C0.078,-0.272 0.097,-0.29 0.122,-0.301C0.146,-0.312 0.174,-0.318 0.205,-0.321C0.236,-0.323 0.268,-0.324 0.301,-0.323L0.301,-0.362C0.301,-0.373 0.301,-0.383 0.3,-0.392C0.299,-0.401 0.296,-0.408 0.292,-0.415C0.288,-0.422 0.282,-0.427 0.275,-0.431C0.267,-0.434 0.257,-0.436 0.244,-0.436C0.232,-0.436 0.222,-0.434 0.215,-0.43C0.208,-0.425 0.202,-0.42 0.199,-0.413C0.196,-0.406 0.194,-0.397 0.193,-0.388C0.192,-0.379 0.191,-0.369 0.191,-0.359L0.053,-0.359C0.053,-0.39 0.057,-0.415 0.067,-0.435C0.076,-0.455 0.088,-0.471 0.105,-0.482C0.121,-0.494 0.14,-0.503 0.163,-0.508C0.185,-0.513 0.21,-0.515 0.237,-0.515C0.282,-0.515 0.317,-0.511 0.344,-0.502C0.371,-0.493 0.391,-0.48 0.405,-0.465C0.419,-0.45 0.428,-0.432 0.433,-0.411C0.437,-0.39 0.439,-0.369 0.439,-0.346L0.439,-0.094ZM0.301,-0.244C0.284,-0.243 0.268,-0.243 0.253,-0.242C0.238,-0.241 0.225,-0.239 0.214,-0.234C0.203,-0.229 0.194,-0.22 0.188,-0.209C0.182,-0.197 0.179,-0.18 0.179,-0.157C0.179,-0.148 0.18,-0.138 0.181,-0.129C0.182,-0.12 0.184,-0.111 0.188,-0.104C0.191,-0.096 0.197,-0.09 0.204,-0.085C0.211,-0.08 0.22,-0.077 0.231,-0.077C0.252,-0.077 0.267,-0.083 0.277,-0.096C0.287,-0.108 0.294,-0.123 0.297,-0.14C0.3,-0.157 0.302,-0.175 0.302,-0.195C0.301,-0.214 0.301,-0.23 0.301,-0.244Z" style="fill:white;fill-rule:nonzero;"/>
        </g>
        <g transform="matrix(50,0,0,50,883.316,745.855)">
            <path d="M0.19,-0.505L0.19,-0.44L0.192,-0.44C0.205,-0.469 0.223,-0.489 0.246,-0.5C0.269,-0.51 0.294,-0.515 0.323,-0.515L0.323,-0.389C0.292,-0.391 0.268,-0.389 0.251,-0.382C0.234,-0.375 0.221,-0.365 0.213,-0.354C0.205,-0.342 0.2,-0.329 0.199,-0.315C0.198,-0.301 0.197,-0.288 0.197,-0.275L0.197,-0L0.056,-0L0.056,-0.505L0.19,-0.505Z" style="fill:white;fill-rule:nonzero;"/>
        </g>
        <g transform="matrix(50,0,0,50,899.966,745.855)">
            <path d="M0.308,-0L0.308,-0.056L0.306,-0.056C0.293,-0.031 0.276,-0.014 0.257,-0.005C0.238,0.005 0.214,0.01 0.187,0.01C0.15,0.01 0.122,0.001 0.103,-0.017C0.084,-0.035 0.07,-0.057 0.062,-0.084C0.053,-0.111 0.049,-0.139 0.048,-0.171C0.047,-0.202 0.046,-0.23 0.046,-0.256C0.046,-0.281 0.047,-0.309 0.048,-0.34C0.049,-0.37 0.053,-0.398 0.062,-0.424C0.07,-0.45 0.084,-0.472 0.103,-0.489C0.122,-0.506 0.149,-0.515 0.184,-0.515C0.209,-0.515 0.231,-0.511 0.25,-0.502C0.268,-0.493 0.284,-0.478 0.299,-0.457L0.301,-0.457L0.301,-0.722L0.442,-0.722L0.442,-0L0.308,-0ZM0.244,-0.077C0.268,-0.077 0.284,-0.091 0.291,-0.12C0.298,-0.148 0.301,-0.194 0.301,-0.257C0.301,-0.282 0.301,-0.306 0.3,-0.327C0.299,-0.347 0.297,-0.366 0.294,-0.381C0.291,-0.396 0.285,-0.407 0.278,-0.416C0.27,-0.424 0.259,-0.428 0.244,-0.428C0.229,-0.428 0.217,-0.424 0.209,-0.416C0.201,-0.407 0.195,-0.396 0.192,-0.381C0.188,-0.366 0.186,-0.347 0.185,-0.327C0.184,-0.306 0.184,-0.282 0.184,-0.257C0.184,-0.194 0.188,-0.148 0.195,-0.12C0.202,-0.091 0.219,-0.077 0.244,-0.077Z" style="fill:white;fill-rule:nonzero;"/>
        </g>
    </g>
    <g transform="matrix(2.20624,0,0,2.20624,-1722.85,-1024.4)">
        <g transform="matrix(50,0,0,50,805.516,745.855)">
            <path d="M0.008,-0.505L0.151,-0.505L0.222,-0.126L0.224,-0.126L0.298,-0.505L0.436,-0.505L0.297,-0L0.142,-0L0.008,-0.505Z" style="fill:white;fill-rule:nonzero;"/>
        </g>
        <g transform="matrix(50,0,0,50,827.716,745.855)">
            <path d="M0.209,-0.722L0.209,-0.611L0.068,-0.611L0.068,-0.722L0.209,-0.722ZM0.209,-0L0.068,-0L0.068,-0.505L0.209,-0.505L0.209,-0Z" style="fill:white;fill-rule:nonzero;"/>
        </g>
        <g transform="matrix(50,0,0,50,841.616,745.855)">
            <path d="M0.19,-0.505L0.19,-0.44L0.192,-0.44C0.205,-0.469 0.223,-0.489 0.246,-0.5C0.269,-0.51 0.294,-0.515 0.323,-0.515L0.323,-0.389C0.292,-0.391 0.268,-0.389 0.251,-0.382C0.234,-0.375 0.221,-0.365 0.213,-0.354C0.205,-0.342 0.2,-0.329 0.199,-0.315C0.198,-0.301 0.197,-0.288 0.197,-0.275L0.197,-0L0.056,-0L0.056,-0.505L0.19,-0.505Z" style="fill:white;fill-rule:nonzero;"/>
        </g>
        <g transform="matrix(50,0,0,50,858.266,745.855)">
            <path d="M-0.001,-0.505L0.056,-0.505L0.056,-0.585L0.197,-0.648L0.197,-0.505L0.27,-0.505L0.27,-0.418L0.197,-0.418L0.197,-0.148C0.197,-0.139 0.197,-0.13 0.198,-0.122C0.198,-0.114 0.199,-0.107 0.202,-0.102C0.205,-0.097 0.209,-0.092 0.216,-0.09C0.222,-0.087 0.231,-0.085 0.242,-0.085L0.255,-0.085C0.26,-0.085 0.264,-0.086 0.267,-0.087L0.267,-0C0.258,0.001 0.248,0.003 0.237,0.004C0.226,0.005 0.211,0.005 0.194,0.005C0.163,0.005 0.139,0.001 0.121,-0.008C0.103,-0.017 0.089,-0.027 0.08,-0.039C0.07,-0.051 0.064,-0.063 0.061,-0.076C0.057,-0.089 0.056,-0.099 0.056,-0.107L0.056,-0.418L-0.001,-0.418L-0.001,-0.505Z" style="fill:white;fill-rule:nonzero;"/>
        </g>
        <g transform="matrix(50,0,0,50,872.166,745.855)">
            <path d="M0.303,-0.051L0.301,-0.051C0.287,-0.028 0.27,-0.013 0.251,-0.004C0.232,0.006 0.209,0.01 0.182,0.01C0.165,0.01 0.149,0.008 0.134,0.003C0.119,-0.003 0.105,-0.01 0.094,-0.019C0.083,-0.028 0.074,-0.04 0.067,-0.054C0.059,-0.067 0.056,-0.083 0.056,-0.1L0.056,-0.505L0.197,-0.505L0.197,-0.155C0.197,-0.132 0.2,-0.114 0.207,-0.099C0.213,-0.084 0.227,-0.077 0.25,-0.077C0.273,-0.077 0.287,-0.084 0.294,-0.099C0.3,-0.114 0.303,-0.132 0.303,-0.155L0.303,-0.505L0.444,-0.505L0.444,-0.1C0.444,-0.083 0.444,-0.067 0.446,-0.05C0.447,-0.033 0.448,-0.017 0.449,-0L0.303,-0L0.303,-0.051Z" style="fill:white;fill-rule:nonzero;"/>
        </g>
        <g transform="matrix(50,0,0,50,897.166,745.855)">
            <path d="M0.439,-0.094C0.439,-0.079 0.44,-0.063 0.442,-0.047C0.443,-0.031 0.445,-0.015 0.446,-0L0.315,-0L0.309,-0.067L0.307,-0.067C0.292,-0.041 0.274,-0.022 0.253,-0.009C0.232,0.004 0.206,0.01 0.175,0.01C0.15,0.01 0.13,0.006 0.113,-0.003C0.096,-0.012 0.082,-0.023 0.071,-0.038C0.06,-0.052 0.053,-0.069 0.048,-0.089C0.043,-0.108 0.041,-0.129 0.041,-0.151C0.041,-0.193 0.048,-0.226 0.063,-0.249C0.078,-0.272 0.097,-0.29 0.122,-0.301C0.146,-0.312 0.174,-0.318 0.205,-0.321C0.236,-0.323 0.268,-0.324 0.301,-0.323L0.301,-0.362C0.301,-0.373 0.301,-0.383 0.3,-0.392C0.299,-0.401 0.296,-0.408 0.292,-0.415C0.288,-0.422 0.282,-0.427 0.275,-0.431C0.267,-0.434 0.257,-0.436 0.244,-0.436C0.232,-0.436 0.222,-0.434 0.215,-0.43C0.208,-0.425 0.202,-0.42 0.199,-0.413C0.196,-0.406 0.194,-0.397 0.193,-0.388C0.192,-0.379 0.191,-0.369 0.191,-0.359L0.053,-0.359C0.053,-0.39 0.057,-0.415 0.067,-0.435C0.076,-0.455 0.088,-0.471 0.105,-0.482C0.121,-0.494 0.14,-0.503 0.163,-0.508C0.185,-0.513 0.21,-0.515 0.237,-0.515C0.282,-0.515 0.317,-0.511 0.344,-0.502C0.371,-0.493 0.391,-0.48 0.405,-0.465C0.419,-0.45 0.428,-0.432 0.433,-0.411C0.437,-0.39 0.439,-0.369 0.439,-0.346L0.439,-0.094ZM0.301,-0.244C0.284,-0.243 0.268,-0.243 0.253,-0.242C0.238,-0.241 0.225,-0.239 0.214,-0.234C0.203,-0.229 0.194,-0.22 0.188,-0.209C0.182,-0.197 0.179,-0.18 0.179,-0.157C0.179,-0.148 0.18,-0.138 0.181,-0.129C0.182,-0.12 0.184,-0.111 0.188,-0.104C0.191,-0.096 0.197,-0.09 0.204,-0.085C0.211,-0.08 0.22,-0.077 0.231,-0.077C0.252,-0.077 0.267,-0.083 0.277,-0.096C0.287,-0.108 0.294,-0.123 0.297,-0.14C0.3,-0.157 0.302,-0.175 0.302,-0.195C0.301,-0.214 0.301,-0.23 0.301,-0.244Z" style="fill:white;fill-rule:nonzero;"/>
        </g>
        <g transform="matrix(50,0,0,50,922.166,745.855)">
            <rect x="0.068" y="-0.722" width="0.141" height="0.722" style="fill:white;fill-rule:nonzero;"/>
        </g>
        <g transform="matrix(50,0,0,50,947.166,745.855)">
            <path d="M0.19,-0.505L0.19,-0.449L0.192,-0.449C0.205,-0.474 0.222,-0.491 0.241,-0.501C0.26,-0.51 0.284,-0.515 0.311,-0.515C0.348,-0.515 0.376,-0.506 0.395,-0.488C0.413,-0.47 0.427,-0.448 0.436,-0.421C0.445,-0.394 0.45,-0.366 0.451,-0.335C0.452,-0.304 0.452,-0.275 0.452,-0.249C0.452,-0.224 0.452,-0.196 0.451,-0.166C0.45,-0.135 0.445,-0.107 0.437,-0.081C0.428,-0.055 0.415,-0.033 0.396,-0.016C0.377,0.001 0.349,0.01 0.314,0.01C0.289,0.01 0.267,0.006 0.249,-0.003C0.23,-0.012 0.214,-0.027 0.199,-0.048L0.197,-0.048L0.197,0.217L0.056,0.217L0.056,-0.505L0.19,-0.505ZM0.254,-0.077C0.279,-0.077 0.296,-0.091 0.303,-0.12C0.31,-0.148 0.314,-0.194 0.314,-0.257C0.314,-0.282 0.314,-0.306 0.313,-0.327C0.312,-0.347 0.31,-0.366 0.307,-0.381C0.303,-0.396 0.297,-0.407 0.289,-0.416C0.281,-0.424 0.269,-0.428 0.254,-0.428C0.239,-0.428 0.228,-0.424 0.221,-0.416C0.213,-0.407 0.207,-0.396 0.204,-0.381C0.2,-0.366 0.198,-0.347 0.198,-0.327C0.197,-0.306 0.197,-0.282 0.197,-0.257C0.197,-0.194 0.201,-0.148 0.208,-0.12C0.215,-0.091 0.23,-0.077 0.254,-0.077Z" style="fill:white;fill-rule:nonzero;"/>
        </g>
        <g transform="matrix(50,0,0,50,972.166,745.855)">
            <path d="M0.19,-0.505L0.19,-0.44L0.192,-0.44C0.205,-0.469 0.223,-0.489 0.246,-0.5C0.269,-0.51 0.294,-0.515 0.323,-0.515L0.323,-0.389C0.292,-0.391 0.268,-0.389 0.251,-0.382C0.234,-0.375 0.221,-0.365 0.213,-0.354C0.205,-0.342 0.2,-0.329 0.199,-0.315C0.198,-0.301 0.197,-0.288 0.197,-0.275L0.197,-0L0.056,-0L0.056,-0.505L0.19,-0.505Z" style="fill:white;fill-rule:nonzero;"/>
        </g>
        <g transform="matrix(50,0,0,50,988.816,745.855)">
            <path d="M0.25,0.01C0.205,0.01 0.168,0.003 0.141,-0.01C0.114,-0.023 0.093,-0.042 0.079,-0.066C0.064,-0.089 0.055,-0.118 0.051,-0.151C0.046,-0.184 0.044,-0.22 0.044,-0.259C0.044,-0.294 0.046,-0.327 0.05,-0.358C0.054,-0.389 0.063,-0.416 0.077,-0.439C0.091,-0.462 0.112,-0.481 0.139,-0.495C0.166,-0.508 0.203,-0.515 0.25,-0.515C0.297,-0.515 0.334,-0.508 0.361,-0.495C0.388,-0.481 0.409,-0.462 0.423,-0.439C0.437,-0.416 0.446,-0.389 0.45,-0.358C0.454,-0.327 0.456,-0.294 0.456,-0.259C0.456,-0.22 0.454,-0.184 0.45,-0.151C0.445,-0.118 0.436,-0.089 0.422,-0.066C0.407,-0.042 0.386,-0.023 0.359,-0.01C0.332,0.003 0.295,0.01 0.25,0.01ZM0.25,-0.08C0.263,-0.08 0.273,-0.083 0.282,-0.088C0.291,-0.093 0.297,-0.102 0.302,-0.116C0.307,-0.129 0.31,-0.148 0.312,-0.173C0.314,-0.197 0.315,-0.228 0.315,-0.267C0.315,-0.293 0.315,-0.316 0.314,-0.336C0.313,-0.356 0.31,-0.373 0.305,-0.386C0.3,-0.399 0.294,-0.408 0.285,-0.415C0.276,-0.422 0.265,-0.425 0.25,-0.425C0.235,-0.425 0.223,-0.422 0.215,-0.415C0.206,-0.408 0.2,-0.399 0.195,-0.386C0.19,-0.373 0.188,-0.356 0.187,-0.336C0.186,-0.316 0.185,-0.293 0.185,-0.267C0.185,-0.228 0.186,-0.197 0.188,-0.173C0.19,-0.148 0.193,-0.129 0.198,-0.116C0.203,-0.102 0.209,-0.093 0.218,-0.088C0.226,-0.083 0.237,-0.08 0.25,-0.08Z" style="fill:white;fill-rule:nonzero;"/>
        </g>
        <g transform="matrix(50,0,0,50,1013.82,745.855)">
            <path d="M0.308,-0L0.308,-0.056L0.306,-0.056C0.293,-0.031 0.276,-0.014 0.257,-0.005C0.238,0.005 0.214,0.01 0.187,0.01C0.15,0.01 0.122,0.001 0.103,-0.017C0.084,-0.035 0.07,-0.057 0.062,-0.084C0.053,-0.111 0.049,-0.139 0.048,-0.171C0.047,-0.202 0.046,-0.23 0.046,-0.256C0.046,-0.281 0.047,-0.309 0.048,-0.34C0.049,-0.37 0.053,-0.398 0.062,-0.424C0.07,-0.45 0.084,-0.472 0.103,-0.489C0.122,-0.506 0.149,-0.515 0.184,-0.515C0.209,-0.515 0.231,-0.511 0.25,-0.502C0.268,-0.493 0.284,-0.478 0.299,-0.457L0.301,-0.457L0.301,-0.722L0.442,-0.722L0.442,-0L0.308,-0ZM0.244,-0.077C0.268,-0.077 0.284,-0.091 0.291,-0.12C0.298,-0.148 0.301,-0.194 0.301,-0.257C0.301,-0.282 0.301,-0.306 0.3,-0.327C0.299,-0.347 0.297,-0.366 0.294,-0.381C0.291,-0.396 0.285,-0.407 0.278,-0.416C0.27,-0.424 0.259,-0.428 0.244,-0.428C0.229,-0.428 0.217,-0.424 0.209,-0.416C0.201,-0.407 0.195,-0.396 0.192,-0.381C0.188,-0.366 0.186,-0.347 0.185,-0.327C0.184,-0.306 0.184,-0.282 0.184,-0.257C0.184,-0.194 0.188,-0.148 0.195,-0.12C0.202,-0.091 0.219,-0.077 0.244,-0.077Z" style="fill:white;fill-rule:nonzero;"/>
        </g>
        <g transform="matrix(50,0,0,50,1038.82,745.855)">
            <path d="M0.303,-0.051L0.301,-0.051C0.287,-0.028 0.27,-0.013 0.251,-0.004C0.232,0.006 0.209,0.01 0.182,0.01C0.165,0.01 0.149,0.008 0.134,0.003C0.119,-0.003 0.105,-0.01 0.094,-0.019C0.083,-0.028 0.074,-0.04 0.067,-0.054C0.059,-0.067 0.056,-0.083 0.056,-0.1L0.056,-0.505L0.197,-0.505L0.197,-0.155C0.197,-0.132 0.2,-0.114 0.207,-0.099C0.213,-0.084 0.227,-0.077 0.25,-0.077C0.273,-0.077 0.287,-0.084 0.294,-0.099C0.3,-0.114 0.303,-0.132 0.303,-0.155L0.303,-0.505L0.444,-0.505L0.444,-0.1C0.444,-0.083 0.444,-0.067 0.446,-0.05C0.447,-0.033 0.448,-0.017 0.449,-0L0.303,-0L0.303,-0.051Z" style="fill:white;fill-rule:nonzero;"/>
        </g>
        <g transform="matrix(50,0,0,50,1063.82,745.855)">
            <path d="M0.313,-0.325C0.313,-0.363 0.308,-0.389 0.298,-0.404C0.288,-0.418 0.272,-0.425 0.25,-0.425C0.235,-0.425 0.223,-0.422 0.215,-0.415C0.206,-0.408 0.2,-0.399 0.195,-0.386C0.19,-0.373 0.188,-0.356 0.187,-0.336C0.186,-0.316 0.185,-0.293 0.185,-0.267C0.185,-0.228 0.186,-0.197 0.188,-0.173C0.19,-0.148 0.193,-0.129 0.198,-0.116C0.203,-0.102 0.209,-0.093 0.218,-0.088C0.226,-0.083 0.237,-0.08 0.25,-0.08C0.272,-0.08 0.288,-0.089 0.299,-0.108C0.31,-0.127 0.315,-0.153 0.315,-0.186L0.456,-0.186C0.456,-0.117 0.438,-0.068 0.403,-0.037C0.368,-0.005 0.317,0.01 0.25,0.01C0.205,0.01 0.168,0.003 0.141,-0.01C0.114,-0.023 0.093,-0.042 0.079,-0.066C0.064,-0.089 0.055,-0.118 0.051,-0.151C0.046,-0.184 0.044,-0.22 0.044,-0.259C0.044,-0.294 0.046,-0.327 0.05,-0.358C0.054,-0.389 0.063,-0.416 0.077,-0.439C0.091,-0.462 0.112,-0.481 0.139,-0.495C0.166,-0.508 0.203,-0.515 0.25,-0.515C0.315,-0.515 0.365,-0.5 0.401,-0.47C0.436,-0.439 0.454,-0.391 0.454,-0.325L0.313,-0.325Z" style="fill:white;fill-rule:nonzero;"/>
        </g>
        <g transform="matrix(50,0,0,50,1088.82,745.855)">
            <path d="M-0.001,-0.505L0.056,-0.505L0.056,-0.585L0.197,-0.648L0.197,-0.505L0.27,-0.505L0.27,-0.418L0.197,-0.418L0.197,-0.148C0.197,-0.139 0.197,-0.13 0.198,-0.122C0.198,-0.114 0.199,-0.107 0.202,-0.102C0.205,-0.097 0.209,-0.092 0.216,-0.09C0.222,-0.087 0.231,-0.085 0.242,-0.085L0.255,-0.085C0.26,-0.085 0.264,-0.086 0.267,-0.087L0.267,-0C0.258,0.001 0.248,0.003 0.237,0.004C0.226,0.005 0.211,0.005 0.194,0.005C0.163,0.005 0.139,0.001 0.121,-0.008C0.103,-0.017 0.089,-0.027 0.08,-0.039C0.07,-0.051 0.064,-0.063 0.061,-0.076C0.057,-0.089 0.056,-0.099 0.056,-0.107L0.056,-0.418L-0.001,-0.418L-0.001,-0.505Z" style="fill:white;fill-rule:nonzero;"/>
        </g>
        <g transform="matrix(50,0,0,50,1102.72,745.855)">
            <path d="M0.209,-0.722L0.209,-0.611L0.068,-0.611L0.068,-0.722L0.209,-0.722ZM0.209,-0L0.068,-0L0.068,-0.505L0.209,-0.505L0.209,-0Z" style="fill:white;fill-rule:nonzero;"/>
        </g>
        <g transform="matrix(50,0,0,50,1116.62,745.855)">
            <path d="M0.25,0.01C0.205,0.01 0.168,0.003 0.141,-0.01C0.114,-0.023 0.093,-0.042 0.079,-0.066C0.064,-0.089 0.055,-0.118 0.051,-0.151C0.046,-0.184 0.044,-0.22 0.044,-0.259C0.044,-0.294 0.046,-0.327 0.05,-0.358C0.054,-0.389 0.063,-0.416 0.077,-0.439C0.091,-0.462 0.112,-0.481 0.139,-0.495C0.166,-0.508 0.203,-0.515 0.25,-0.515C0.297,-0.515 0.334,-0.508 0.361,-0.495C0.388,-0.481 0.409,-0.462 0.423,-0.439C0.437,-0.416 0.446,-0.389 0.45,-0.358C0.454,-0.327 0.456,-0.294 0.456,-0.259C0.456,-0.22 0.454,-0.184 0.45,-0.151C0.445,-0.118 0.436,-0.089 0.422,-0.066C0.407,-0.042 0.386,-0.023 0.359,-0.01C0.332,0.003 0.295,0.01 0.25,0.01ZM0.25,-0.08C0.263,-0.08 0.273,-0.083 0.282,-0.088C0.291,-0.093 0.297,-0.102 0.302,-0.116C0.307,-0.129 0.31,-0.148 0.312,-0.173C0.314,-0.197 0.315,-0.228 0.315,-0.267C0.315,-0.293 0.315,-0.316 0.314,-0.336C0.313,-0.356 0.31,-0.373 0.305,-0.386C0.3,-0.399 0.294,-0.408 0.285,-0.415C0.276,-0.422 0.265,-0.425 0.25,-0.425C0.235,-0.425 0.223,-0.422 0.215,-0.415C0.206,-0.408 0.2,-0.399 0.195,-0.386C0.19,-0.373 0.188,-0.356 0.187,-0.336C0.186,-0.316 0.185,-0.293 0.185,-0.267C0.185,-0.228 0.186,-0.197 0.188,-0.173C0.19,-0.148 0.193,-0.129 0.198,-0.116C0.203,-0.102 0.209,-0.093 0.218,-0.088C0.226,-0.083 0.237,-0.08 0.25,-0.08Z" style="fill:white;fill-rule:nonzero;"/>
        </g>
        <g transform="matrix(50,0,0,50,1141.62,745.855)">
            <path d="M0.197,-0.454L0.199,-0.454C0.212,-0.476 0.229,-0.492 0.249,-0.501C0.268,-0.51 0.291,-0.515 0.318,-0.515C0.335,-0.515 0.351,-0.513 0.366,-0.508C0.381,-0.503 0.395,-0.495 0.406,-0.486C0.417,-0.477 0.427,-0.465 0.434,-0.452C0.44,-0.438 0.444,-0.422 0.444,-0.405L0.444,-0L0.303,-0L0.303,-0.348C0.303,-0.371 0.3,-0.39 0.294,-0.405C0.287,-0.42 0.273,-0.428 0.25,-0.428C0.227,-0.428 0.213,-0.42 0.207,-0.405C0.2,-0.39 0.197,-0.371 0.197,-0.348L0.197,-0L0.056,-0L0.056,-0.505L0.197,-0.505L0.197,-0.454Z" style="fill:white;fill-rule:nonzero;"/>
        </g>
    </g>
</svg>
